<?xml version="1.0" standalone="no"?>
<!DOCTYPE svg PUBLIC "-//W3C//DTD SVG 20010904//EN"
 "http://www.w3.org/TR/2001/REC-SVG-20010904/DTD/svg10.dtd">
<svg version="1.0" xmlns="http://www.w3.org/2000/svg"
 width="384.000000pt" height="384.000000pt" viewBox="0 0 384.000000 384.000000"
 preserveAspectRatio="xMidYMid meet">
<metadata>
Created by potrace 1.14, written by Peter Selinger 2001-2017
</metadata>
<g transform="translate(0.000000,384.000000) scale(0.100000,-0.100000)"
fill="#000000" stroke="none">
<path d="M732 3733 c-5 -10 -42 -119 -82 -243 -39 -124 -141 -436 -225 -695
-157 -482 -416 -1284 -419 -1297 0 -4 71 -60 159 -124 156 -115 1224 -891
1578 -1146 l177 -129 128 92 c571 414 749 544 761 555 12 11 8 20 -27 58 -70
76 -108 144 -342 613 l-225 451 -87 -81 -87 -82 -15 -140 c-44 -410 -28 -596
64 -725 l20 -28 -42 -37 c-51 -43 -131 -69 -185 -59 -110 19 -164 101 -183
279 -13 116 0 261 66 705 114 776 128 907 121 1155 -4 144 -9 195 -26 254 -24
81 -25 76 34 108 39 21 152 29 198 14 44 -15 92 -68 107 -118 36 -127 24 -282
-71 -866 -22 -137 -39 -251 -36 -253 7 -7 214 212 349 369 223 259 479 617
554 774 l37 76 66 -5 c107 -8 181 -57 181 -119 0 -45 -119 -202 -379 -499
-137 -156 -379 -418 -421 -455 -12 -11 -31 -32 -42 -47 l-19 -28 176 -348 c96
-192 205 -399 242 -460 72 -121 165 -224 236 -262 l43 -23 361 262 360 262
-42 132 c-141 439 -607 1874 -658 2027 l-32 95 -1182 3 c-1118 2 -1183 1
-1191 -15z m1703 -215 c-29 -115 -76 -160 -188 -178 -45 -7 -268 5 -458 24
l-46 5 -7 -82 c-10 -117 -39 -323 -102 -711 -88 -546 -106 -703 -108 -926 -1
-175 1 -202 21 -265 12 -38 36 -91 52 -117 l30 -47 -36 -32 c-50 -43 -98 -62
-163 -62 -98 0 -155 49 -192 165 -16 50 -20 90 -20 198 0 143 14 268 83 720
88 581 119 852 119 1048 l0 115 -132 -7 c-160 -8 -303 -28 -421 -59 l-87 -24
0 36 c0 20 6 59 14 86 25 95 59 140 131 172 37 16 90 18 725 18 660 0 687 1
740 20 l55 20 3 -27 c2 -15 -4 -56 -13 -90z"/>
</g>
</svg>
